<!DOCTYPE svg PUBLIC "-//W3C//DTD SVG 1.1//EN" "http://www.w3.org/Graphics/SVG/1.1/DTD/svg11.dtd">
<!-- Uploaded to: SVG Repo, www.svgrepo.com, Transformed by: SVG Repo Mixer Tools -->
<svg fill="#000000" width="800px" height="800px" viewBox="0 0 24 24" id="winter" xmlns="http://www.w3.org/2000/svg" class="icon multi-color">
<g id="SVGRepo_bgCarrier" stroke-width="0"/>
<g id="SVGRepo_tracerCarrier" stroke-linecap="round" stroke-linejoin="round"/>
<g id="SVGRepo_iconCarrier">
<title style="stroke-width: 2;">winter</title>
<path id="primary-stroke" d="M12,9V5M9.88,9.88,7.05,7.05m2,5H5m4.88,2.12L7.05,17M12,19V15M17,17l-2.83-2.83M19,12H15M17,7.05,14.12,9.88M12,9a3,3,0,1,0,3,3A3,3,0,0,0,12,9Zm2-6L12,5,10,3M4.22,7.05H7.05V4.22M3,14l2-2L3,10m4.05,9.78V17H4.22M14,21l-2-2-2,2M19.78,17H17v2.83M21,10l-2,2,2,2M17,4.22V7.05h2.83" style="fill: none; stroke: #ffbd59; stroke-linecap: round; stroke-linejoin: round; stroke-width: 2;"/>
</g>
</svg>