<svg xmlns="http://www.w3.org/2000/svg" xmlns:xlink="http://www.w3.org/1999/xlink" width="64" zoomAndPan="magnify" viewBox="0 0 48 48" height="64" preserveAspectRatio="xMidYMid meet" version="1.0"><defs><clipPath id="2a57da9170"><path d="M 0.488281 0.234375 L 47.507812 0.234375 L 47.507812 47.019531 L 0.488281 47.019531 Z M 0.488281 0.234375 " clip-rule="nonzero"/></clipPath></defs><g clip-path="url(#2a57da9170)"><path fill="#ffde59" d="M 27.816406 47.015625 C 26.769531 47.015625 25.773438 46.65625 24.941406 45.984375 C 23.894531 45.117188 23.289062 43.859375 23.289062 42.503906 L 23.289062 29.664062 C 23.289062 29.203125 23.648438 28.84375 24.105469 28.84375 C 24.5625 28.84375 24.921875 29.203125 24.921875 29.664062 L 24.921875 42.503906 C 24.921875 43.371094 25.300781 44.171875 25.96875 44.726562 C 26.640625 45.28125 27.523438 45.496094 28.371094 45.332031 C 39.007812 43.238281 46.441406 33.828125 46.035156 22.945312 C 45.609375 11.558594 36.34375 2.308594 24.972656 1.886719 C 18.960938 1.65625 13.242188 3.828125 8.910156 7.996094 C 4.566406 12.179688 2.179688 17.785156 2.179688 23.8125 C 2.179688 33.910156 9.007812 42.652344 18.796875 45.101562 C 19.238281 45.21875 19.5 45.660156 19.382812 46.097656 C 19.269531 46.539062 18.828125 46.800781 18.386719 46.6875 C 7.882812 44.058594 0.546875 34.644531 0.546875 23.8125 C 0.546875 17.34375 3.109375 11.3125 7.765625 6.835938 C 12.425781 2.359375 18.550781 0.0234375 25.039062 0.269531 C 37.257812 0.726562 47.210938 10.675781 47.667969 22.898438 C 48.109375 34.582031 40.136719 44.695312 28.699219 46.949219 C 28.402344 47 28.109375 47.015625 27.816406 47.015625 Z M 19.15625 7.898438 C 18.304688 7.898438 17.636719 8.585938 17.636719 9.417969 L 17.636719 20.855469 C 17.636719 21.703125 18.324219 22.375 19.15625 22.375 C 20.003906 22.375 20.675781 21.6875 20.675781 20.855469 L 20.675781 9.417969 C 20.691406 8.585938 20.003906 7.898438 19.15625 7.898438 Z M 30.59375 9.433594 L 30.59375 20.871094 C 30.59375 21.722656 29.90625 22.390625 29.074219 22.390625 C 28.242188 22.390625 27.554688 21.703125 27.554688 20.871094 L 27.554688 9.433594 C 27.554688 8.585938 28.242188 7.914062 29.074219 7.914062 C 29.90625 7.914062 30.59375 8.585938 30.59375 9.433594 Z M 30.59375 9.433594 " fill-opacity="1" fill-rule="nonzero"/></g><path fill="#ffbd59" d="M 34.367188 15.023438 L 13.863281 15.023438 C 12.882812 15.023438 12.34375 16.164062 12.980469 16.917969 L 15.363281 20.855469 C 15.804688 21.574219 16.035156 22.40625 16.035156 23.242188 L 16.035156 25.5625 C 16.035156 29.777344 19.449219 33.175781 23.648438 33.175781 L 24.597656 33.175781 C 28.8125 33.175781 32.210938 29.761719 32.210938 25.5625 L 32.210938 23.242188 C 32.210938 22.390625 32.441406 21.574219 32.878906 20.855469 L 35.265625 16.917969 C 35.886719 16.164062 35.347656 15.023438 34.367188 15.023438 Z M 34.367188 15.023438 " fill-opacity="1" fill-rule="nonzero"/></svg>